<svg xmlns="http://www.w3.org/2000/svg" xmlns:oryx="http://oryx-editor.org" id="_6A0CC68B-3FB3-41BB-8B13-8A9D12E0E963" width="578" height="258" xmlns:xlink="http://www.w3.org/1999/xlink" xmlns:svg="http://www.w3.org/2000/svg"><defs><marker id="_FCB5ADF0-81C5-4C89-B1A5-FA7D899CC836start" refX="1" refY="5" markerUnits="userSpaceOnUse" markerWidth="17" markerHeight="11" orient="auto" fill="#000000" stroke="#000000"> 	  		<path id="_FCB5ADF0-81C5-4C89-B1A5-FA7D899CC836conditional" d="M 0 5 L 8 0 L 16 5 L 8 10 L 0 5" fill="white" stroke="#000000" stroke-width="1" display="none"/> 			<path id="_FCB5ADF0-81C5-4C89-B1A5-FA7D899CC836default" d="M 5 0 L 11 10" fill="white" stroke="#000000" stroke-width="1" display="none"/> 	  	</marker><marker id="_FCB5ADF0-81C5-4C89-B1A5-FA7D899CC836end" refX="15" refY="6" markerUnits="userSpaceOnUse" markerWidth="15" markerHeight="12" orient="auto" fill="#000000" stroke="#000000"> 	  		<path id="_FCB5ADF0-81C5-4C89-B1A5-FA7D899CC836frame2" d="M 0 1 L 15 6 L 0 11z" fill="#000000" stroke="#000000" stroke-linejoin="round" stroke-width="2"/> 	  	</marker><marker id="_93B5B056-25E6-4A57-9AE0-17C9A9ECE5D8start" refX="1" refY="5" markerUnits="userSpaceOnUse" markerWidth="17" markerHeight="11" orient="auto" fill="#000000" stroke="#000000"> 	  		<path id="_93B5B056-25E6-4A57-9AE0-17C9A9ECE5D8conditional" d="M 0 5 L 8 0 L 16 5 L 8 10 L 0 5" fill="white" stroke="#000000" stroke-width="1" display="none"/> 			<path id="_93B5B056-25E6-4A57-9AE0-17C9A9ECE5D8default" d="M 5 0 L 11 10" fill="white" stroke="#000000" stroke-width="1" display="none"/> 	  	</marker><marker id="_93B5B056-25E6-4A57-9AE0-17C9A9ECE5D8end" refX="15" refY="6" markerUnits="userSpaceOnUse" markerWidth="15" markerHeight="12" orient="auto" fill="#000000" stroke="#000000"> 	  		<path id="_93B5B056-25E6-4A57-9AE0-17C9A9ECE5D8frame2" d="M 0 1 L 15 6 L 0 11z" fill="#000000" stroke="#000000" stroke-linejoin="round" stroke-width="2"/> 	  	</marker><marker id="_29B02B04-48E3-4DE2-8027-FB8FEF038CADstart" refX="1" refY="5" markerUnits="userSpaceOnUse" markerWidth="17" markerHeight="11" orient="auto" fill="#000000" stroke="#000000"> 	  		<path id="_29B02B04-48E3-4DE2-8027-FB8FEF038CADconditional" d="M 0 5 L 8 0 L 16 5 L 8 10 L 0 5" fill="white" stroke="#000000" stroke-width="1" display="none"/> 			<path id="_29B02B04-48E3-4DE2-8027-FB8FEF038CADdefault" d="M 5 0 L 11 10" fill="white" stroke="#000000" stroke-width="1" display="none"/> 	  	</marker><marker id="_29B02B04-48E3-4DE2-8027-FB8FEF038CADend" refX="15" refY="6" markerUnits="userSpaceOnUse" markerWidth="15" markerHeight="12" orient="auto" fill="#000000" stroke="#000000"> 	  		<path id="_29B02B04-48E3-4DE2-8027-FB8FEF038CADframe2" d="M 0 1 L 15 6 L 0 11z" fill="#000000" stroke="#000000" stroke-linejoin="round" stroke-width="2"/> 	  	</marker></defs><g stroke="none" font-family="Verdana, sans-serif" font-size-adjust="none" font-style="normal" font-variant="normal" font-weight="normal" line-heigth="normal" font-size="12"><g class="stencils" transform="translate(15, 14)"><g class="me"/><g class="children"><g id="_502CF157-F687-4C16-8610-54AD3B55A137" bpmn2nodeid="processStartEvent"><g class="stencils" transform="translate(120, 165)"><g class="me"><g pointer-events="fill" id="_502CF157-F687-4C16-8610-54AD3B55A137">        <defs id="_502CF157-F687-4C16-8610-54AD3B55A137__502CF157-F687-4C16-8610-54AD3B55A137_5"> 		<radialGradient id="_502CF157-F687-4C16-8610-54AD3B55A137background" cx="10%" cy="10%" r="100%" fx="10%" fy="10%"> 			<stop offset="0%" stop-color="#ffffff" stop-opacity="1" id="_502CF157-F687-4C16-8610-54AD3B55A137__502CF157-F687-4C16-8610-54AD3B55A137_6"/> 			<stop id="_502CF157-F687-4C16-8610-54AD3B55A137fill_el" offset="100%" stop-color="#9acd32" stop-opacity="1"/> 		</radialGradient> 	</defs> 	     <circle id="_502CF157-F687-4C16-8610-54AD3B55A137bg_frame" cx="15" cy="15" r="15" stroke="#000000" fill="url(#_502CF157-F687-4C16-8610-54AD3B55A137background) white" stroke-width="1" style="stroke-dasharray: 5.5, 3"/>      <circle id="_502CF157-F687-4C16-8610-54AD3B55A137frame" cx="15" cy="15" r="15" stroke="#000000" fill="none" stroke-width="1" display="inherit"/>  	<text font-size="11" id="_502CF157-F687-4C16-8610-54AD3B55A137text_name" x="15" y="32" oryx:align="top center" stroke="black" stroke-width="0pt" letter-spacing="-0.01px" fill="#000000" text-anchor="middle" transform="rotate(0 15 32)" visibility="inherit" oryx:fontSize="11"/>   </g></g><g class="children" style="overflow:hidden"/><g class="edge"/></g><g class="controls"><g class="dockers"/><g class="magnets" transform="translate(120, 165)"><g pointer-events="all" display="none" transform="translate(7, 7)"><circle cx="8" cy="8" r="4" stroke="none" fill="red" fill-opacity="0.3"/></g></g></g></g><g id="_07ED0B6A-8514-42A2-8311-03A798CD5890" bpmn2nodeid="_574ACC25-F4B7-4486-A0C6-A7D347A6CD5C"><g class="stencils" transform="translate(195, 135)"><g class="me"><g pointer-events="fill" oryx:minimumSize="50 40" id="_07ED0B6A-8514-42A2-8311-03A798CD5890">   	<defs id="_07ED0B6A-8514-42A2-8311-03A798CD5890__07ED0B6A-8514-42A2-8311-03A798CD5890_17"> 		<radialGradient id="_07ED0B6A-8514-42A2-8311-03A798CD5890background" cx="10%" cy="10%" r="100%" fx="10%" fy="10%"> 			<stop offset="0%" stop-color="#ffffff" stop-opacity="1" id="_07ED0B6A-8514-42A2-8311-03A798CD5890__07ED0B6A-8514-42A2-8311-03A798CD5890_18"/> 			<stop id="_07ED0B6A-8514-42A2-8311-03A798CD5890fill_el" offset="100%" stop-color="#fafad2" stop-opacity="1"/> 		</radialGradient> 		<radialGradient id="_07ED0B6A-8514-42A2-8311-03A798CD5890borderbackground" cx="10%" cy="10%" r="100%" fx="10%" fy="10%"> 			<stop offset="0%" stop-color="#ffffff" stop-opacity="1" id="_07ED0B6A-8514-42A2-8311-03A798CD5890__07ED0B6A-8514-42A2-8311-03A798CD5890_19"/> 			<stop id="_07ED0B6A-8514-42A2-8311-03A798CD5890fill_border" offset="100%" stop-color="#000000" stop-opacity="1" stroke="#000000"/> 		</radialGradient> 	</defs> 	 	<rect id="_07ED0B6A-8514-42A2-8311-03A798CD5890text_frame" oryx:anchors="bottom top right left" x="1" y="1" width="94" height="79" rx="10" ry="10" stroke="none" stroke-width="0" fill="none"/> 	<rect id="_07ED0B6A-8514-42A2-8311-03A798CD5890bg_frame" oryx:resize="vertical horizontal" x="0" y="0" width="100" height="80" rx="10" ry="10" stroke="#000000" stroke-width="1" fill="url(#_07ED0B6A-8514-42A2-8311-03A798CD5890background) #ffffcc"/> 		<text font-size="12" id="_07ED0B6A-8514-42A2-8311-03A798CD5890text_name" x="50" y="40" oryx:align="middle center" oryx:fittoelem="text_frame" stroke="black" text-anchor="middle" stroke-width="0pt" letter-spacing="-0.01px" fill="#000000" transform="rotate(0 50 40)" visibility="inherit" oryx:fontSize="12"><tspan x="50" y="40" dy="5">testTask</tspan></text>     <g id="_07ED0B6A-8514-42A2-8311-03A798CD5890manualTask" transform="scale(0.7,0.7) translate(8,8)" display="none">     	<path oryx:anchors="top left" id="_07ED0B6A-8514-42A2-8311-03A798CD5890frame" style="opacity:1;fill:none;fill-opacity:1;stroke-width:1" d="M0.5,3.751l4.083-3.25c0,0,11.166,0.083,12.083,0.083s-2.417,2.917-1.5,2.917     s11.667,0,12.584,0c1.166,1.708-0.168,3.167-0.834,3.667s0.875,1.917-1,4.417c-0.75,0.25,0.75,1.875-1.333,3.333     c-1.167,0.583,0.583,1.542-1.25,2.833c-1.167,0-20.833,0.083-20.833,0.083l-2-1.333V3.751z" stroke="#000000"/> 		<path id="_07ED0B6A-8514-42A2-8311-03A798CD5890frame2" oryx:anchors="top left" style="opacity:1;fill:none;stroke-width:2" d="M 13.5 7 L 27 7" stroke="#000000"/> 		<path id="_07ED0B6A-8514-42A2-8311-03A798CD5890frame3" oryx:anchors="top left" style="opacity:1;fill:none;stroke-width:2" d="M 13.5 11 L 26 11" stroke="#000000"/> 		<path id="_07ED0B6A-8514-42A2-8311-03A798CD5890frame4" oryx:anchors="top left" style="opacity:1;fill:none;stroke-width:1.5" d="M 14 14.5 L 25 14.5" stroke="#000000"/> 		<path id="_07ED0B6A-8514-42A2-8311-03A798CD5890frame5" oryx:anchors="top left" style="opacity:1;fill:none;stroke-width:1.5" d="M 8.2 3.1 L 15 3.1" stroke="#000000"/> 	</g> 	 	<g id="_07ED0B6A-8514-42A2-8311-03A798CD5890businessRuleTask" transform="scale(0.7,0.7) translate(8,8)" display="none"> 		<rect id="_07ED0B6A-8514-42A2-8311-03A798CD5890frame6" oryx:anchors="top left" x="0" y="0" width="22" height="4" style="opacity:1;fill:#B3B1B3;fill-opacity:1;" stroke="#000000"/> 		<rect id="_07ED0B6A-8514-42A2-8311-03A798CD5890frame7" oryx:anchors="top left" x="0" y="4" style="opacity:1;fill:none;" width="22" height="12" stroke="#000000"/> 		<path id="_07ED0B6A-8514-42A2-8311-03A798CD5890frame8" oryx:anchors="top left" style="opacity:1;fill:none;" d="M 0 10 L 22 10" stroke="#000000"/> 		<path id="_07ED0B6A-8514-42A2-8311-03A798CD5890frame9" oryx:anchors="top left" style="opacity:1; fill:none;" d="M 7 4 L 7 16" stroke="#000000"/> 	</g> 	 	<g id="_07ED0B6A-8514-42A2-8311-03A798CD5890scriptTask" transform="scale(0.7,0.7) translate(8,8)" display="none"> 		<path oryx:anchors="top left" id="_07ED0B6A-8514-42A2-8311-03A798CD5890frame10" style="opacity:1;fill:none;" stroke="#000000" d="M6.402,0.5h14.5c0,0-5.833,2.833-5.833,5.583s4.417,6,4.417,9.167    s-4.167,5.083-4.167,5.083H0.235c0,0,5-2.667,5-5s-4.583-6.75-4.583-9.25S6.402,0.5,6.402,0.5z"/> 		<path oryx:anchors="top left" id="_07ED0B6A-8514-42A2-8311-03A798CD5890frame11" style="opacity:1;fill:none;stroke-width:1.5" d="M 3.5 4.5 L 13.5 4.5" stroke="#000000"/> 		<path oryx:anchors="top left" id="_07ED0B6A-8514-42A2-8311-03A798CD5890frame12" style="opacity:1;fill:none;stroke-width:1.5" d="M 3.8 8.5 L 13.8 8.5" stroke="#000000"/> 		<path oryx:anchors="top left" id="_07ED0B6A-8514-42A2-8311-03A798CD5890frame13" style="opacity:1;fill:none;stroke-width:1.5" d="M 6.3 12.5 L 16.3 12.5" stroke="#000000"/> 		<path oryx:anchors="top left" id="_07ED0B6A-8514-42A2-8311-03A798CD5890frame14" style="opacity:1;fill:none;stroke-width:1.5" d="M 6.5 16.5 L 16.5 16.5" stroke="#000000"/> 	</g> 	 	<g id="_07ED0B6A-8514-42A2-8311-03A798CD5890userTask" transform="scale(0.7,0.7) translate(8,8)" display="inherit"> 		<path id="_07ED0B6A-8514-42A2-8311-03A798CD5890frame15" oryx:anchors="top left" style="opacity:1;fill:#F4F6F7" stroke="#000000" d="M0.585,24.167h24.083v-7.833c0,0-2.333-3.917-7.083-5.167h-9.25    c-4.417,1.333-7.833,5.75-7.833,5.75L0.585,24.167z"/> 		<path id="_07ED0B6A-8514-42A2-8311-03A798CD5890frame16" oryx:anchors="top left" style="opacity:1;fill:none" d="M 6 20 L 6 24" stroke="#000000"/> 		<path id="_07ED0B6A-8514-42A2-8311-03A798CD5890frame17" oryx:anchors="top left" style="opacity:1;fill:none" d="M 20 20 L 20 24" stroke="#000000"/> 		<circle id="_07ED0B6A-8514-42A2-8311-03A798CD5890frame18" oryx:anchors="top left" fill="black" cx="13.002" cy="5.916" r="5.417" stroke="#000000"/> 		<path id="_07ED0B6A-8514-42A2-8311-03A798CD5890frame19" oryx:anchors="top left" style="opacity:1;fill:#F0EFF0;" stroke="#000000" d="M8.043,7.083c0,0,2.814-2.426,5.376-1.807s4.624-0.693,4.624-0.693    c0.25,1.688,0.042,3.75-1.458,5.584c0,0,1.083,0.75,1.083,1.5s0.125,1.875-1,3s-5.5,1.25-6.75,0S8.668,12.834,8.668,12    s0.583-1.25,1.25-1.917C8.835,9.5,7.419,7.708,8.043,7.083z"/> 	</g> 	 	<g id="_07ED0B6A-8514-42A2-8311-03A798CD5890serviceTask" transform="scale(0.7,0.7) translate(8,8)" display="none"> 		<polygon oryx:anchors="top left" id="_07ED0B6A-8514-42A2-8311-03A798CD5890frame20" style="opacity:1;fill:#ffffff" stroke="#000000" points="15.392,5.064 17.954,2.502 20.347,4.895 17.786,7.455     18.729,9.732 22.353,9.732 22.353,13.115 18.731,13.115 17.788,15.392 20.351,17.955 17.958,20.347 15.397,17.786 13.12,18.729     13.12,22.353 9.737,22.353 9.737,18.731 7.46,17.788 4.897,20.35 2.506,17.958 5.066,15.397 4.124,13.12 0.5,13.12 0.5,9.737     4.121,9.737 5.065,7.461 2.503,4.898 4.895,2.506 7.455,5.066 9.732,4.125 9.732,0.5 13.116,0.5 13.116,4.121 "/> 		<circle oryx:anchors="top left" id="_07ED0B6A-8514-42A2-8311-03A798CD5890frame21" style="opacity:1;fill:none" stroke="#000000" cx="11.427" cy="11.426" r="3.714"/> 		<polygon oryx:anchors="top left" id="_07ED0B6A-8514-42A2-8311-03A798CD5890frame22" style="opacity:1;fill:#ffffff" stroke="#000000" points="21.392,11.064 23.954,8.502 26.347,10.895 23.786,13.455     24.729,15.732 28.353,15.732 28.353,19.115 24.731,19.115 23.788,21.392 26.351,23.955 23.958,26.347 21.397,23.786 19.12,24.729     19.12,28.353 15.737,28.353 15.737,24.731 13.46,23.788 10.897,26.35 8.506,23.958 11.066,21.397 10.124,19.12 6.5,19.12     6.5,15.737 10.121,15.737 11.065,13.461 8.503,10.898 10.895,8.506 13.455,11.066 15.732,10.125 15.732,6.5 19.116,6.5     19.116,10.121 "/> 		<circle oryx:anchors="top left" id="_07ED0B6A-8514-42A2-8311-03A798CD5890frame23" style="opacity:1;fill:none;" stroke="#000000" cx="17.427" cy="17.426" r="3.714"/> 	</g> 	 	<g id="_07ED0B6A-8514-42A2-8311-03A798CD5890sendTask" display="none"> 		<path id="_07ED0B6A-8514-42A2-8311-03A798CD5890stframe24" oryx:anchors="left top" stroke="#FFFFFF" fill="black" stroke-width="1" d="M8,11 L8,21 L24,21 L24,11 L16,17z"/> 		<path id="_07ED0B6A-8514-42A2-8311-03A798CD5890stframe25" oryx:anchors="left top" stroke="#FFFFFF" fill="black" stroke-width="1" d="M7,10 L16,17 L25 10z"/> 	</g> 	 	<g id="_07ED0B6A-8514-42A2-8311-03A798CD5890receiveTask" display="none"> 		<path id="_07ED0B6A-8514-42A2-8311-03A798CD5890frame26" oryx:anchors="left top" stroke="#000000" fill="none" stroke-width="1" d="M8,11 L8,21 L24,21 L24,11z M8,11 L16,17 L24,11"/> 	</g> 	 	<g id="_07ED0B6A-8514-42A2-8311-03A798CD5890none" display="inherit"/>  	<g id="_07ED0B6A-8514-42A2-8311-03A798CD5890sequential" display="none">         <path oryx:anchors="bottom" fill="none" stroke="#000000" stroke-width="2" d="M46,76h10M46,72h10 M46,68h10" id="_07ED0B6A-8514-42A2-8311-03A798CD5890__07ED0B6A-8514-42A2-8311-03A798CD5890_20"/>     </g>   </g></g><g class="children" style="overflow:hidden"/><g class="edge"/></g><g class="controls"><g class="dockers"/><g class="magnets" transform="translate(195, 135)"><g pointer-events="all" display="none" transform="translate(-7, 12)"><circle cx="8" cy="8" r="4" stroke="none" fill="red" fill-opacity="0.3"/></g><g pointer-events="all" display="none" transform="translate(-7, 32)"><circle cx="8" cy="8" r="4" stroke="none" fill="red" fill-opacity="0.3"/></g><g pointer-events="all" display="none" transform="translate(-7, 52)"><circle cx="8" cy="8" r="4" stroke="none" fill="red" fill-opacity="0.3"/></g><g pointer-events="all" display="none" transform="translate(17, 71)"><circle cx="8" cy="8" r="4" stroke="none" fill="red" fill-opacity="0.3"/></g><g pointer-events="all" display="none" transform="translate(42, 71)"><circle cx="8" cy="8" r="4" stroke="none" fill="red" fill-opacity="0.3"/></g><g pointer-events="all" display="none" transform="translate(67, 71)"><circle cx="8" cy="8" r="4" stroke="none" fill="red" fill-opacity="0.3"/></g><g pointer-events="all" display="none" transform="translate(91, 12)"><circle cx="8" cy="8" r="4" stroke="none" fill="red" fill-opacity="0.3"/></g><g pointer-events="all" display="none" transform="translate(91, 32)"><circle cx="8" cy="8" r="4" stroke="none" fill="red" fill-opacity="0.3"/></g><g pointer-events="all" display="none" transform="translate(91, 52)"><circle cx="8" cy="8" r="4" stroke="none" fill="red" fill-opacity="0.3"/></g><g pointer-events="all" display="none" transform="translate(17, -7)"><circle cx="8" cy="8" r="4" stroke="none" fill="red" fill-opacity="0.3"/></g><g pointer-events="all" display="none" transform="translate(42, -7)"><circle cx="8" cy="8" r="4" stroke="none" fill="red" fill-opacity="0.3"/></g><g pointer-events="all" display="none" transform="translate(67, -7)"><circle cx="8" cy="8" r="4" stroke="none" fill="red" fill-opacity="0.3"/></g><g pointer-events="all" display="none" transform="translate(42, 32)"><circle cx="8" cy="8" r="4" stroke="none" fill="red" fill-opacity="0.3"/></g></g></g></g><g id="_32E5FDF5-D420-4A9A-AD95-716AE9BA94CF" bpmn2nodeid="_010293A5-9542-41E8-8FC8-7650916B66B4"><g class="stencils" transform="translate(510, 161)"><g class="me"><g pointer-events="fill" id="_32E5FDF5-D420-4A9A-AD95-716AE9BA94CF">      <defs id="_32E5FDF5-D420-4A9A-AD95-716AE9BA94CF__32E5FDF5-D420-4A9A-AD95-716AE9BA94CF_5"> 		<radialGradient id="_32E5FDF5-D420-4A9A-AD95-716AE9BA94CFbackground" cx="10%" cy="10%" r="100%" fx="10%" fy="10%"> 			<stop offset="0%" stop-color="#ffffff" stop-opacity="1" id="_32E5FDF5-D420-4A9A-AD95-716AE9BA94CF__32E5FDF5-D420-4A9A-AD95-716AE9BA94CF_6"/> 			<stop id="_32E5FDF5-D420-4A9A-AD95-716AE9BA94CFfill_el" offset="100%" stop-color="#ff6347" stop-opacity="1"/> 		</radialGradient> 	</defs> 	     <circle id="_32E5FDF5-D420-4A9A-AD95-716AE9BA94CFbg_frame" cx="14" cy="14" r="14" stroke="#000000" fill="url(#_32E5FDF5-D420-4A9A-AD95-716AE9BA94CFbackground) white" stroke-width="3"/> 	<text font-size="11" id="_32E5FDF5-D420-4A9A-AD95-716AE9BA94CFtext_name" x="14" y="30" oryx:align="top center" stroke="black" stroke-width="0pt" letter-spacing="-0.01px" fill="#000000" text-anchor="middle" transform="rotate(0 14 30)" visibility="inherit" oryx:fontSize="11"/>   </g></g><g class="children" style="overflow:hidden"/><g class="edge"/></g><g class="controls"><g class="dockers"/><g class="magnets" transform="translate(510, 161)"><g pointer-events="all" display="none" transform="translate(6, 6)"><circle cx="8" cy="8" r="4" stroke="none" fill="red" fill-opacity="0.3"/></g></g></g></g><g id="_B5800BBE-B19F-499E-B7C2-98272C23C786" bpmn2nodeid="_66D5A242-1AC4-48C7-BB1A-AE58C216697F"><g class="stencils" transform="translate(345, 135)"><g class="me"><g pointer-events="fill" oryx:minimumSize="50 40" id="_B5800BBE-B19F-499E-B7C2-98272C23C786">   	<defs id="_B5800BBE-B19F-499E-B7C2-98272C23C786__B5800BBE-B19F-499E-B7C2-98272C23C786_17"> 		<radialGradient id="_B5800BBE-B19F-499E-B7C2-98272C23C786background" cx="10%" cy="10%" r="100%" fx="10%" fy="10%"> 			<stop offset="0%" stop-color="#ffffff" stop-opacity="1" id="_B5800BBE-B19F-499E-B7C2-98272C23C786__B5800BBE-B19F-499E-B7C2-98272C23C786_18"/> 			<stop id="_B5800BBE-B19F-499E-B7C2-98272C23C786fill_el" offset="100%" stop-color="#fafad2" stop-opacity="1"/> 		</radialGradient> 		<radialGradient id="_B5800BBE-B19F-499E-B7C2-98272C23C786borderbackground" cx="10%" cy="10%" r="100%" fx="10%" fy="10%"> 			<stop offset="0%" stop-color="#ffffff" stop-opacity="1" id="_B5800BBE-B19F-499E-B7C2-98272C23C786__B5800BBE-B19F-499E-B7C2-98272C23C786_19"/> 			<stop id="_B5800BBE-B19F-499E-B7C2-98272C23C786fill_border" offset="100%" stop-color="#000000" stop-opacity="1" stroke="#000000"/> 		</radialGradient> 	</defs> 	 	<rect id="_B5800BBE-B19F-499E-B7C2-98272C23C786text_frame" oryx:anchors="bottom top right left" x="1" y="1" width="94" height="79" rx="10" ry="10" stroke="none" stroke-width="0" fill="none"/> 	<rect id="_B5800BBE-B19F-499E-B7C2-98272C23C786bg_frame" oryx:resize="vertical horizontal" x="0" y="0" width="100" height="80" rx="10" ry="10" stroke="#000000" stroke-width="1" fill="url(#_B5800BBE-B19F-499E-B7C2-98272C23C786background) #ffffcc"/> 		<text font-size="12" id="_B5800BBE-B19F-499E-B7C2-98272C23C786text_name" x="50" y="40" oryx:align="middle center" oryx:fittoelem="text_frame" stroke="black" text-anchor="middle" stroke-width="0pt" letter-spacing="-0.01px" fill="#000000" transform="rotate(0 50 40)" visibility="inherit" oryx:fontSize="12"><tspan x="50" y="40" dy="5" id="ext-gen603">task2</tspan></text>     <g id="_B5800BBE-B19F-499E-B7C2-98272C23C786manualTask" transform="scale(0.7,0.7) translate(8,8)" display="none">     	<path oryx:anchors="top left" id="_B5800BBE-B19F-499E-B7C2-98272C23C786frame" style="opacity:1;fill:none;fill-opacity:1;stroke-width:1" d="M0.5,3.751l4.083-3.25c0,0,11.166,0.083,12.083,0.083s-2.417,2.917-1.5,2.917     s11.667,0,12.584,0c1.166,1.708-0.168,3.167-0.834,3.667s0.875,1.917-1,4.417c-0.75,0.25,0.75,1.875-1.333,3.333     c-1.167,0.583,0.583,1.542-1.25,2.833c-1.167,0-20.833,0.083-20.833,0.083l-2-1.333V3.751z" stroke="#000000"/> 		<path id="_B5800BBE-B19F-499E-B7C2-98272C23C786frame2" oryx:anchors="top left" style="opacity:1;fill:none;stroke-width:2" d="M 13.5 7 L 27 7" stroke="#000000"/> 		<path id="_B5800BBE-B19F-499E-B7C2-98272C23C786frame3" oryx:anchors="top left" style="opacity:1;fill:none;stroke-width:2" d="M 13.5 11 L 26 11" stroke="#000000"/> 		<path id="_B5800BBE-B19F-499E-B7C2-98272C23C786frame4" oryx:anchors="top left" style="opacity:1;fill:none;stroke-width:1.5" d="M 14 14.5 L 25 14.5" stroke="#000000"/> 		<path id="_B5800BBE-B19F-499E-B7C2-98272C23C786frame5" oryx:anchors="top left" style="opacity:1;fill:none;stroke-width:1.5" d="M 8.2 3.1 L 15 3.1" stroke="#000000"/> 	</g> 	 	<g id="_B5800BBE-B19F-499E-B7C2-98272C23C786businessRuleTask" transform="scale(0.7,0.7) translate(8,8)" display="none"> 		<rect id="_B5800BBE-B19F-499E-B7C2-98272C23C786frame6" oryx:anchors="top left" x="0" y="0" width="22" height="4" style="opacity:1;fill:#B3B1B3;fill-opacity:1;" stroke="#000000"/> 		<rect id="_B5800BBE-B19F-499E-B7C2-98272C23C786frame7" oryx:anchors="top left" x="0" y="4" style="opacity:1;fill:none;" width="22" height="12" stroke="#000000"/> 		<path id="_B5800BBE-B19F-499E-B7C2-98272C23C786frame8" oryx:anchors="top left" style="opacity:1;fill:none;" d="M 0 10 L 22 10" stroke="#000000"/> 		<path id="_B5800BBE-B19F-499E-B7C2-98272C23C786frame9" oryx:anchors="top left" style="opacity:1; fill:none;" d="M 7 4 L 7 16" stroke="#000000"/> 	</g> 	 	<g id="_B5800BBE-B19F-499E-B7C2-98272C23C786scriptTask" transform="scale(0.7,0.7) translate(8,8)" display="none"> 		<path oryx:anchors="top left" id="_B5800BBE-B19F-499E-B7C2-98272C23C786frame10" style="opacity:1;fill:none;" stroke="#000000" d="M6.402,0.5h14.5c0,0-5.833,2.833-5.833,5.583s4.417,6,4.417,9.167    s-4.167,5.083-4.167,5.083H0.235c0,0,5-2.667,5-5s-4.583-6.75-4.583-9.25S6.402,0.5,6.402,0.5z"/> 		<path oryx:anchors="top left" id="_B5800BBE-B19F-499E-B7C2-98272C23C786frame11" style="opacity:1;fill:none;stroke-width:1.5" d="M 3.5 4.5 L 13.5 4.5" stroke="#000000"/> 		<path oryx:anchors="top left" id="_B5800BBE-B19F-499E-B7C2-98272C23C786frame12" style="opacity:1;fill:none;stroke-width:1.5" d="M 3.8 8.5 L 13.8 8.5" stroke="#000000"/> 		<path oryx:anchors="top left" id="_B5800BBE-B19F-499E-B7C2-98272C23C786frame13" style="opacity:1;fill:none;stroke-width:1.5" d="M 6.3 12.5 L 16.3 12.5" stroke="#000000"/> 		<path oryx:anchors="top left" id="_B5800BBE-B19F-499E-B7C2-98272C23C786frame14" style="opacity:1;fill:none;stroke-width:1.5" d="M 6.5 16.5 L 16.5 16.5" stroke="#000000"/> 	</g> 	 	<g id="_B5800BBE-B19F-499E-B7C2-98272C23C786userTask" transform="scale(0.7,0.7) translate(8,8)" display="inherit"> 		<path id="_B5800BBE-B19F-499E-B7C2-98272C23C786frame15" oryx:anchors="top left" style="opacity:1;fill:#F4F6F7" stroke="#000000" d="M0.585,24.167h24.083v-7.833c0,0-2.333-3.917-7.083-5.167h-9.25    c-4.417,1.333-7.833,5.75-7.833,5.75L0.585,24.167z"/> 		<path id="_B5800BBE-B19F-499E-B7C2-98272C23C786frame16" oryx:anchors="top left" style="opacity:1;fill:none" d="M 6 20 L 6 24" stroke="#000000"/> 		<path id="_B5800BBE-B19F-499E-B7C2-98272C23C786frame17" oryx:anchors="top left" style="opacity:1;fill:none" d="M 20 20 L 20 24" stroke="#000000"/> 		<circle id="_B5800BBE-B19F-499E-B7C2-98272C23C786frame18" oryx:anchors="top left" fill="black" cx="13.002" cy="5.916" r="5.417" stroke="#000000"/> 		<path id="_B5800BBE-B19F-499E-B7C2-98272C23C786frame19" oryx:anchors="top left" style="opacity:1;fill:#F0EFF0;" stroke="#000000" d="M8.043,7.083c0,0,2.814-2.426,5.376-1.807s4.624-0.693,4.624-0.693    c0.25,1.688,0.042,3.75-1.458,5.584c0,0,1.083,0.75,1.083,1.5s0.125,1.875-1,3s-5.5,1.25-6.75,0S8.668,12.834,8.668,12    s0.583-1.25,1.25-1.917C8.835,9.5,7.419,7.708,8.043,7.083z"/> 	</g> 	 	<g id="_B5800BBE-B19F-499E-B7C2-98272C23C786serviceTask" transform="scale(0.7,0.7) translate(8,8)" display="none"> 		<polygon oryx:anchors="top left" id="_B5800BBE-B19F-499E-B7C2-98272C23C786frame20" style="opacity:1;fill:#ffffff" stroke="#000000" points="15.392,5.064 17.954,2.502 20.347,4.895 17.786,7.455     18.729,9.732 22.353,9.732 22.353,13.115 18.731,13.115 17.788,15.392 20.351,17.955 17.958,20.347 15.397,17.786 13.12,18.729     13.12,22.353 9.737,22.353 9.737,18.731 7.46,17.788 4.897,20.35 2.506,17.958 5.066,15.397 4.124,13.12 0.5,13.12 0.5,9.737     4.121,9.737 5.065,7.461 2.503,4.898 4.895,2.506 7.455,5.066 9.732,4.125 9.732,0.5 13.116,0.5 13.116,4.121 "/> 		<circle oryx:anchors="top left" id="_B5800BBE-B19F-499E-B7C2-98272C23C786frame21" style="opacity:1;fill:none" stroke="#000000" cx="11.427" cy="11.426" r="3.714"/> 		<polygon oryx:anchors="top left" id="_B5800BBE-B19F-499E-B7C2-98272C23C786frame22" style="opacity:1;fill:#ffffff" stroke="#000000" points="21.392,11.064 23.954,8.502 26.347,10.895 23.786,13.455     24.729,15.732 28.353,15.732 28.353,19.115 24.731,19.115 23.788,21.392 26.351,23.955 23.958,26.347 21.397,23.786 19.12,24.729     19.12,28.353 15.737,28.353 15.737,24.731 13.46,23.788 10.897,26.35 8.506,23.958 11.066,21.397 10.124,19.12 6.5,19.12     6.5,15.737 10.121,15.737 11.065,13.461 8.503,10.898 10.895,8.506 13.455,11.066 15.732,10.125 15.732,6.5 19.116,6.5     19.116,10.121 "/> 		<circle oryx:anchors="top left" id="_B5800BBE-B19F-499E-B7C2-98272C23C786frame23" style="opacity:1;fill:none;" stroke="#000000" cx="17.427" cy="17.426" r="3.714"/> 	</g> 	 	<g id="_B5800BBE-B19F-499E-B7C2-98272C23C786sendTask" display="none"> 		<path id="_B5800BBE-B19F-499E-B7C2-98272C23C786stframe24" oryx:anchors="left top" stroke="#FFFFFF" fill="black" stroke-width="1" d="M8,11 L8,21 L24,21 L24,11 L16,17z"/> 		<path id="_B5800BBE-B19F-499E-B7C2-98272C23C786stframe25" oryx:anchors="left top" stroke="#FFFFFF" fill="black" stroke-width="1" d="M7,10 L16,17 L25 10z"/> 	</g> 	 	<g id="_B5800BBE-B19F-499E-B7C2-98272C23C786receiveTask" display="none"> 		<path id="_B5800BBE-B19F-499E-B7C2-98272C23C786frame26" oryx:anchors="left top" stroke="#000000" fill="none" stroke-width="1" d="M8,11 L8,21 L24,21 L24,11z M8,11 L16,17 L24,11"/> 	</g> 	 	<g id="_B5800BBE-B19F-499E-B7C2-98272C23C786none" display="inherit"/>  	<g id="_B5800BBE-B19F-499E-B7C2-98272C23C786sequential" display="none">         <path oryx:anchors="bottom" fill="none" stroke="#000000" stroke-width="2" d="M46,76h10M46,72h10 M46,68h10" id="_B5800BBE-B19F-499E-B7C2-98272C23C786__B5800BBE-B19F-499E-B7C2-98272C23C786_20"/>     </g>   </g></g><g class="children" style="overflow:hidden"/><g class="edge"/></g><g class="controls"><g class="dockers"/><g class="magnets" transform="translate(345, 135)"><g pointer-events="all" display="none" transform="translate(-7, 12)"><circle cx="8" cy="8" r="4" stroke="none" fill="red" fill-opacity="0.3"/></g><g pointer-events="all" display="none" transform="translate(-7, 32)"><circle cx="8" cy="8" r="4" stroke="none" fill="red" fill-opacity="0.3"/></g><g pointer-events="all" display="none" transform="translate(-7, 52)"><circle cx="8" cy="8" r="4" stroke="none" fill="red" fill-opacity="0.3"/></g><g pointer-events="all" display="none" transform="translate(17, 71)"><circle cx="8" cy="8" r="4" stroke="none" fill="red" fill-opacity="0.3"/></g><g pointer-events="all" display="none" transform="translate(42, 71)"><circle cx="8" cy="8" r="4" stroke="none" fill="red" fill-opacity="0.3"/></g><g pointer-events="all" display="none" transform="translate(67, 71)"><circle cx="8" cy="8" r="4" stroke="none" fill="red" fill-opacity="0.3"/></g><g pointer-events="all" display="none" transform="translate(91, 12)"><circle cx="8" cy="8" r="4" stroke="none" fill="red" fill-opacity="0.3"/></g><g pointer-events="all" display="none" transform="translate(91, 32)"><circle cx="8" cy="8" r="4" stroke="none" fill="red" fill-opacity="0.3"/></g><g pointer-events="all" display="none" transform="translate(91, 52)"><circle cx="8" cy="8" r="4" stroke="none" fill="red" fill-opacity="0.3"/></g><g pointer-events="all" display="none" transform="translate(17, -7)"><circle cx="8" cy="8" r="4" stroke="none" fill="red" fill-opacity="0.3"/></g><g pointer-events="all" display="none" transform="translate(42, -7)"><circle cx="8" cy="8" r="4" stroke="none" fill="red" fill-opacity="0.3"/></g><g pointer-events="all" display="none" transform="translate(67, -7)"><circle cx="8" cy="8" r="4" stroke="none" fill="red" fill-opacity="0.3"/></g><g pointer-events="all" display="none" transform="translate(42, 32)"><circle cx="8" cy="8" r="4" stroke="none" fill="red" fill-opacity="0.3"/></g></g></g></g></g><g class="edge"><g id="_FCB5ADF0-81C5-4C89-B1A5-FA7D899CC836" bpmn2nodeid="_F3FB7CFF-EAC6-4BBF-8C2D-537904850B72"><g class="stencils"><g class="me"><g pointer-events="painted" bpmn2nodeid="_640048B5-0F2D-4A36-A5C7-623FF1B59060"><path id="_FCB5ADF0-81C5-4C89-B1A5-FA7D899CC836_1" d="M150.6083435402103 179.29052983908136L194.1572814597897 177.31103266091864 " stroke="#000000" fill="none" stroke-width="2" stroke-linecap="round" stroke-linejoin="round" marker-start="url(#_FCB5ADF0-81C5-4C89-B1A5-FA7D899CC836start)" marker-end="url(#_FCB5ADF0-81C5-4C89-B1A5-FA7D899CC836end)"/></g><text id="_FCB5ADF0-81C5-4C89-B1A5-FA7D899CC836text_name" font-size="12" x="164.6083435402103" y="165.29052983908136" oryx:edgePosition="startTop" stroke-width="0pt" letter-spacing="-0.01px" fill="#000000" text-anchor="start" transform="rotate(357.3974377975002 150.6083435402103 179.29052983908136)" visibility="inherit" oryx:fontSize="12"/></g><g class="children" style="overflow:hidden"/><g class="edge"/></g><g class="controls"><g class="dockers"/><g class="magnets"/></g></g><g id="_93B5B056-25E6-4A57-9AE0-17C9A9ECE5D8" bpmn2nodeid="_57DFC438-0083-45FF-8F65-A3241C68600D"><g class="stencils"><g class="me"><g pointer-events="painted" bpmn2nodeid="_1303DF16-B3D9-47CB-A761-DD43EB898360"><path id="_93B5B056-25E6-4A57-9AE0-17C9A9ECE5D8_1" d="M295.21875 175L344.78125 175 " stroke="#000000" fill="none" stroke-width="2" stroke-linecap="round" stroke-linejoin="round" marker-start="url(#_93B5B056-25E6-4A57-9AE0-17C9A9ECE5D8start)" marker-end="url(#_93B5B056-25E6-4A57-9AE0-17C9A9ECE5D8end)"/></g><text id="_93B5B056-25E6-4A57-9AE0-17C9A9ECE5D8text_name" font-size="12" x="309.21875" y="161" oryx:edgePosition="startTop" stroke-width="0pt" letter-spacing="-0.01px" fill="#000000" text-anchor="start" transform="rotate(360 295.21875 175)" visibility="inherit" oryx:fontSize="12"/></g><g class="children" style="overflow:hidden"/><g class="edge"/></g><g class="controls"><g class="dockers"/><g class="magnets"/></g></g><g id="_29B02B04-48E3-4DE2-8027-FB8FEF038CAD" bpmn2nodeid="_8BE06B85-E268-4F29-BE54-30C3F90D734A"><g class="stencils"><g class="me"><g pointer-events="painted" bpmn2nodeid="_43F4FD22-B1E3-413B-81B3-C5656078B756"><path id="_29B02B04-48E3-4DE2-8027-FB8FEF038CAD_1" d="M445.3828125 175L509.8984375 175 " stroke="#000000" fill="none" stroke-width="2" stroke-linecap="round" stroke-linejoin="round" marker-start="url(#_29B02B04-48E3-4DE2-8027-FB8FEF038CADstart)" marker-end="url(#_29B02B04-48E3-4DE2-8027-FB8FEF038CADend)"/></g><text id="_29B02B04-48E3-4DE2-8027-FB8FEF038CADtext_name" font-size="12" x="459.3828125" y="161" oryx:edgePosition="startTop" stroke-width="0pt" letter-spacing="-0.01px" fill="#000000" text-anchor="start" transform="rotate(360 445.3828125 175)" visibility="inherit" oryx:fontSize="12"/></g><g class="children" style="overflow:hidden"/><g class="edge"/></g><g class="controls"><g class="dockers"/><g class="magnets"/></g></g></g><text id="_6D641AFE-4A8D-4F75-92ED-B8EC92D0F179" style="stroke-width:1;fill:rgb(177,194,214);font-family:arial;font-weight:bold" font-size="12" onclick="ORYX.Plugins.CanvasTitle.openTextualAnalysis()" onmouseover="ORYX.Plugins.CanvasTitle.addToolTip('_6D641AFE-4A8D-4F75-92ED-B8EC92D0F179')" transform="translate(10, 20)">testprocess v.1.0 (testproject.testprocess)</text></g></g></svg>